<?xml version="1.0" encoding="utf-8"?>
<!-- Generator: Adobe Illustrator 24.1.1, SVG Export Plug-In . SVG Version: 6.00 Build 0)  -->
<svg version="1.1" id="Слой_1" xmlns="http://www.w3.org/2000/svg" xmlns:xlink="http://www.w3.org/1999/xlink" x="0px" y="0px"
	 viewBox="0 0 156.42 158.11" style="enable-background:new 0 0 156.42 158.11;" xml:space="preserve">
<style type="text/css">
	.st0{clip-path:url(#SVGID_2_);fill:#292D36;}
</style>
<g>
	<defs>
		<rect id="SVGID_1_" width="156.42" height="158.11"/>
	</defs>
	<clipPath id="SVGID_2_">
		<use xlink:href="#SVGID_1_"  style="overflow:visible;"/>
	</clipPath>
	<path class="st0" d="M156.42,71.25v-0.19l-22-11.82l-8.02-4.32l-7.34-3.94l-8.03-4.32L90.89,35.84l0.2-11.64
		C90.95,15.16,84.81,0.36,77.5,0.01h-0.19C77.28,0,77.26,0,77.23,0.01h-0.08c-7.45,0.11-13.3,15.45-13.16,24.63l0.46,10.8L0,72.81
		c0.06,3.43,1.42,6.47,3.58,8.72c2.38,2.48,5.72,3.99,9.32,3.99c0.98,0,1.97-0.12,2.96-0.35l10.75-2.53
		c2.62-0.62,5.25-1.17,7.89-1.66l0.01,4.77c0,1.1,0.89,1.98,1.99,1.98l2.44,0c1.1,0,1.98-0.89,1.98-1.99l-0.01-5.82h0
		c1.86-0.28,3.72-0.52,5.58-0.73c0,0,0,0,0.01,0l0.01,4.6c0,1.1,0.89,1.98,1.99,1.98l2.44,0c1.1,0,1.98-0.89,1.98-1.99l-0.01-5.2
		c4.44-0.33,8.9-0.49,13.36-0.48l0.86,20.23l0.28,6.76l0.85,19.96l-19.12,21.68c-1.72,1.94,0.05,4.95,2.58,4.4l21.65-4.67
		c0.37,1.03,0.73,2.04,1.09,3.02c1.23,3.35,2.38,6.26,3.14,8.15v0.01c0.07,0.17,0.13,0.32,0.19,0.47c0,0,2.88-3.1,5.34-9.12
		c0.08-0.2,0.15-0.4,0.23-0.6c0.28-0.74,0.57-1.5,0.86-2.27l23.13,4.91c2.54,0.54,4.29-2.47,2.57-4.41l-20.55-23.13l0.34-19
		l0.11-6.76l0.09-4.96l0.12-6.75l0.08-4.95l0.04-2.03h0l0.15-0.01c3.99-0.19,7.97-0.23,11.96-0.14l0.01,3.57
		c0,1.77,1.44,3.2,3.21,3.2c1.77,0,3.2-1.44,3.2-3.21l-0.01-3.28c1.87,0.11,3.73,0.26,5.6,0.43l0.01,4.79c0,1.77,1.44,3.2,3.21,3.2
		c1.77,0,3.2-1.44,3.2-3.21l-0.01-4.05c3.22,0.42,6.43,0.94,9.62,1.55l10.35,1.98l0.22,0.04l0.27,0.05c0.2,0.04,0.39,0.07,0.59,0.1
		c0.01,0,0.02,0,0.03,0.01c0.2,0.03,0.4,0.05,0.6,0.07c0.02,0,0.03,0,0.05,0c0.07,0.01,0.14,0.01,0.21,0.02
		c0.02,0,0.05,0.01,0.07,0.01c0.11,0.01,0.21,0.01,0.32,0.02c0.1,0,0.19,0,0.29,0.01h0.3c0.03,0,0.05,0,0.08,0c0.08,0,0.15,0,0.23,0
		c0.07,0,0.13-0.01,0.2-0.01c0.03,0,0.05,0,0.08,0c0.02,0,0.04,0,0.05,0h0.04c0.44-0.02,0.88-0.07,1.31-0.14
		c0.39-0.06,0.77-0.14,1.14-0.24c0.27-0.07,0.53-0.16,0.8-0.24c0.1-0.03,0.2-0.06,0.3-0.1c0.29-0.1,0.57-0.22,0.85-0.34
		c0.07-0.03,0.13-0.06,0.2-0.09c0.29-0.13,0.57-0.28,0.85-0.43c0.05-0.03,0.09-0.05,0.14-0.08c0.29-0.17,0.58-0.34,0.86-0.53
		c0.02-0.01,0.03-0.03,0.05-0.04c0.91-0.61,1.74-1.33,2.47-2.16c0,0-0.01,0-0.02-0.01c0,0,0,0,0,0
		C155.21,77.52,156.43,74.55,156.42,71.25 M118.72,58.4c2.16,1.31,0.97,4.63-1.52,4.27c-8.77-1.24-20.06-1.95-26.79,0.58l0.38-21.81
		L118.72,58.4z M72.29,6.76l9.94-0.16c1.03,1.25,1.77,2.75,2.3,4.43l-14.4,0.24C70.57,9.55,71.29,8.04,72.29,6.76 M38.75,62.81
		c-2.49,0.37-3.69-2.95-1.54-4.26L64.72,41.8l0.9,21.35C58.88,60.65,47.51,61.54,38.75,62.81 M62.73,143.53
		c-1.72,0.29-2.86-1.73-1.72-3.05l7.9-9.09c0.15,0.76,0.33,1.55,0.53,2.37c0.02,0.07,0.04,0.14,0.05,0.21
		c0.18,0.74,0.38,1.5,0.6,2.27c0.18,0.63,0.37,1.28,0.56,1.92c0.06,0.19,0.1,0.37,0.16,0.55c0.29,0.95,0.59,1.91,0.91,2.88
		c0.07,0.26,0.11,0.4,0.11,0.4L62.73,143.53z M96.68,140.42c1.15,1.31,0.02,3.34-1.7,3.06l-9.29-1.44c0,0,0-0.01,0.01-0.02
		c0-0.01,0.01-0.03,0.02-0.05c0.01-0.03,0.02-0.05,0.02-0.08c0.02-0.05,0.04-0.11,0.07-0.18c0.02-0.07,0.05-0.15,0.09-0.25
		c0.04-0.12,0.09-0.26,0.14-0.42c0.06-0.17,0.12-0.35,0.18-0.52c0.03-0.09,0.07-0.19,0.1-0.29c0.73-2.12,1.89-5.78,2.56-9.05
		L96.68,140.42z"/>
</g>
</svg>
